<?xml version="1.0" encoding="UTF-8"?>
<svg xmlns="http://www.w3.org/2000/svg" xmlns:xlink="http://www.w3.org/1999/xlink" width="30pt" height="30.000001pt" viewBox="0 0 30 30.000001" version="1.2">
<defs>
<clipPath id="clip1">
  <path d="M 0.484375 0.335938 L 29.515625 0.335938 L 29.515625 28.640625 L 0.484375 28.640625 Z M 0.484375 0.335938 "/>
</clipPath>
</defs>
<g id="surface1">
<g clip-path="url(#clip1)" clip-rule="nonzero">
<path style=" stroke:none;fill-rule:nonzero;fill:rgb(15.689087%,65.489197%,27.059937%);fill-opacity:1;" d="M 11.058594 20.746094 L 24.433594 20.746094 C 24.726562 20.746094 25.011719 20.695312 25.285156 20.601562 C 25.5625 20.503906 25.816406 20.367188 26.046875 20.191406 C 26.277344 20.011719 26.472656 19.800781 26.632812 19.558594 C 26.796875 19.316406 26.914062 19.054688 26.988281 18.773438 L 30.09375 7.378906 C 30.140625 7.183594 30.097656 7.003906 29.972656 6.847656 C 29.84375 6.703125 29.683594 6.625 29.492188 6.605469 L 6.511719 6.605469 L 4.9375 0.835938 C 4.902344 0.699219 4.828125 0.589844 4.714844 0.503906 C 4.601562 0.421875 4.476562 0.382812 4.335938 0.386719 L 0.527344 0.386719 L 0.527344 1.636719 L 3.871094 1.636719 L 5.402344 7.34375 L 5.402344 7.382812 L 8.507812 18.773438 C 8.53125 18.832031 8.566406 18.914062 8.597656 18.988281 L 9.65625 22.929688 C 9.164062 23.191406 8.773438 23.558594 8.484375 24.035156 C 8.195312 24.511719 8.046875 25.027344 8.042969 25.585938 L 8.042969 26.226562 L 8.121094 26.226562 C 8.1875 26.5625 8.3125 26.878906 8.488281 27.175781 C 8.667969 27.472656 8.890625 27.730469 9.160156 27.949219 C 9.425781 28.167969 9.722656 28.335938 10.050781 28.449219 C 10.375 28.566406 10.710938 28.625 11.058594 28.625 C 11.464844 28.625 11.851562 28.546875 12.226562 28.394531 C 12.605469 28.242188 12.933594 28.019531 13.222656 27.738281 C 13.511719 27.453125 13.734375 27.125 13.894531 26.75 C 14.050781 26.378906 14.132812 25.988281 14.136719 25.585938 C 14.121094 24.925781 13.914062 24.328125 13.519531 23.796875 L 21.96875 23.796875 C 21.578125 24.328125 21.371094 24.925781 21.355469 25.585938 C 21.359375 25.988281 21.4375 26.378906 21.597656 26.75 C 21.753906 27.125 21.976562 27.453125 22.265625 27.738281 C 22.554688 28.023438 22.886719 28.242188 23.261719 28.394531 C 23.636719 28.546875 24.027344 28.625 24.433594 28.625 C 24.78125 28.625 25.117188 28.566406 25.441406 28.449219 C 25.769531 28.335938 26.066406 28.167969 26.335938 27.949219 C 26.601562 27.730469 26.824219 27.472656 27.003906 27.175781 C 27.183594 26.878906 27.304688 26.5625 27.375 26.222656 L 27.449219 26.222656 L 27.449219 25.582031 C 27.453125 25.183594 27.378906 24.796875 27.226562 24.425781 C 27.074219 24.050781 26.859375 23.722656 26.574219 23.4375 C 26.292969 23.152344 25.964844 22.933594 25.59375 22.777344 C 25.222656 22.625 24.835938 22.546875 24.433594 22.546875 L 11.058594 22.546875 C 11.011719 22.546875 10.941406 22.566406 10.851562 22.570312 L 10.328125 20.613281 C 10.5625 20.699219 10.808594 20.746094 11.058594 20.746094 Z M 11.058594 27.402344 C 10.820312 27.402344 10.589844 27.351562 10.371094 27.261719 C 10.148438 27.167969 9.957031 27.035156 9.789062 26.867188 C 9.621094 26.695312 9.492188 26.5 9.402344 26.28125 C 9.3125 26.058594 9.265625 25.832031 9.265625 25.59375 C 9.269531 25.355469 9.3125 25.125 9.40625 24.90625 C 9.496094 24.683594 9.628906 24.492188 9.796875 24.324219 C 9.964844 24.152344 10.160156 24.023438 10.382812 23.933594 C 10.601562 23.839844 10.832031 23.796875 11.070312 23.792969 C 11.308594 23.792969 11.539062 23.839844 11.761719 23.929688 C 11.980469 24.019531 12.175781 24.148438 12.347656 24.316406 C 12.515625 24.484375 12.648438 24.675781 12.742188 24.898438 C 12.835938 25.117188 12.882812 25.34375 12.882812 25.582031 C 12.890625 25.828125 12.847656 26.0625 12.757812 26.289062 C 12.667969 26.515625 12.535156 26.714844 12.363281 26.886719 C 12.191406 27.058594 11.992188 27.1875 11.765625 27.28125 C 11.539062 27.371094 11.300781 27.410156 11.058594 27.40625 Z M 24.433594 27.402344 C 24.195312 27.410156 23.960938 27.371094 23.738281 27.28125 C 23.511719 27.195312 23.3125 27.070312 23.136719 26.90625 C 22.964844 26.738281 22.828125 26.546875 22.730469 26.324219 C 22.632812 26.105469 22.582031 25.875 22.578125 25.632812 C 22.574219 25.394531 22.613281 25.164062 22.703125 24.9375 C 22.792969 24.714844 22.917969 24.515625 23.085938 24.34375 C 23.253906 24.171875 23.449219 24.039062 23.671875 23.941406 C 23.890625 23.847656 24.125 23.796875 24.363281 23.796875 C 24.605469 23.792969 24.835938 23.835938 25.0625 23.925781 C 25.285156 24.015625 25.484375 24.144531 25.65625 24.3125 C 25.828125 24.480469 25.957031 24.675781 26.050781 24.898438 C 26.144531 25.121094 26.195312 25.351562 26.195312 25.589844 C 26.199219 25.828125 26.160156 26.058594 26.074219 26.277344 C 25.984375 26.5 25.859375 26.695312 25.695312 26.867188 C 25.53125 27.035156 25.339844 27.167969 25.121094 27.261719 C 24.902344 27.355469 24.671875 27.402344 24.433594 27.40625 Z M 24.433594 27.402344 "/>
</g>
</g>
</svg>
